<svg id="Layer_1" data-name="Layer 1" xmlns="http://www.w3.org/2000/svg" xmlns:xlink="http://www.w3.org/1999/xlink" viewBox="0 0 396 296"><defs><style>.cls-1,.cls-18,.cls-3{fill:#7ecdc2;}.cls-1,.cls-20{stroke:#0d1413;}.cls-1,.cls-16,.cls-20,.cls-3,.cls-37,.cls-39,.cls-40,.cls-41,.cls-42,.cls-43{stroke-miterlimit:10;}.cls-12,.cls-17,.cls-2,.cls-20,.cls-24,.cls-25,.cls-26,.cls-37,.cls-39,.cls-5,.cls-7,.cls-8{fill:none;}.cls-3,.cls-37{stroke:#121414;}.cls-4{fill:#0b0300;}.cls-12,.cls-5,.cls-6{stroke:#8e7c69;}.cls-12,.cls-13,.cls-17,.cls-24,.cls-25,.cls-26,.cls-27,.cls-28,.cls-29,.cls-30,.cls-31,.cls-5,.cls-6,.cls-7,.cls-8,.cls-9{stroke-linecap:round;stroke-linejoin:round;}.cls-12,.cls-13,.cls-17,.cls-26,.cls-27,.cls-28,.cls-29,.cls-30,.cls-5,.cls-6,.cls-7,.cls-8,.cls-9{stroke-width:2px;}.cls-14,.cls-16,.cls-5,.cls-8{opacity:0.2;}.cls-12,.cls-13,.cls-14,.cls-15,.cls-16,.cls-5,.cls-6,.cls-7,.cls-8,.cls-9{isolation:isolate;}.cls-15,.cls-6,.cls-9{fill:#060606;}.cls-12,.cls-13,.cls-15,.cls-6,.cls-7,.cls-9{opacity:0.4;}.cls-7,.cls-8{stroke:#e5ccae;}.cls-9{stroke:#020202;}.cls-10{fill:#0c0c0c;}.cls-11{fill:#191918;}.cls-13{fill:#070400;stroke:#353535;}.cls-14{fill:#050504;}.cls-16{fill:#130c00;stroke:#1a1b00;}.cls-17{stroke:#191716;}.cls-19{clip-path:url(#clip-path);}.cls-21{fill:#ffe13f;}.cls-22,.cls-28{fill:#f7f2f5;}.cls-23{clip-path:url(#clip-path-2);}.cls-24,.cls-42{stroke:#fff;}.cls-24{stroke-width:8px;}.cls-25{stroke:#e5e0e3;stroke-width:6px;}.cls-26,.cls-27,.cls-28,.cls-29{stroke:#7f6371;}.cls-27,.cls-30,.cls-42{fill:#fff;}.cls-29,.cls-31{fill:#d2c7cc;}.cls-30,.cls-31{stroke:#d2c7cc;}.cls-32{fill:#ffdb6d;}.cls-33{fill:#8e7c69;}.cls-34{fill:#27cba4;}.cls-35{fill:#189675;}.cls-36{clip-path:url(#clip-path-3);}.cls-38{fill:#deded4;}.cls-39,.cls-40,.cls-41{stroke:#6d3d40;}.cls-39,.cls-40,.cls-41,.cls-43{stroke-width:0.5px;}.cls-40{fill:#fda5a9;}.cls-43{fill:#ed6c73;stroke:#7c3549;}.cls-44{fill:#c92828;}.cls-45{fill:red;}</style><clipPath id="clip-path"><rect class="cls-1" x="31" y="5" width="332" height="240" rx="6" ry="6"/></clipPath><clipPath id="clip-path-2"><path class="cls-2" d="M76,41H320a6,6,0,0,1,6,6V65H70V47A6,6,0,0,1,76,41Z"/></clipPath><clipPath id="clip-path-3"><path class="cls-3" d="M19.35,245H376.68a5.33,5.33,0,0,1,5.33,5.33h0A10.67,10.67,0,0,1,371.35,261H24.68A10.67,10.67,0,0,1,14,250.33h0A5.33,5.33,0,0,1,19.35,245Z"/></clipPath></defs><title>Artboard 1</title><path class="cls-4" d="M394.91,289q0-.12,0-.24c-.1-6.38-.2-12.75-.07-19.13,0-1.5,0-3,.06-4.59A4,4,0,0,0,391,261H5a4,4,0,0,0-4,4v24a4,4,0,0,0,4,4h385.9a4,4,0,0,0,4-3.82Z"/><path class="cls-5" d="M3.12,268.49l219.48-5.55M2.74,284.47l166.74-3.17M3.66,290.84l220.94-8.7"/><path class="cls-6" d="M245.64,265c50.12.78,98.19,1.28,148.37,2.38"/><path class="cls-7" d="M171,288.75l80.2,3.2"/><path class="cls-5" d="M197.06,286l80.2,3.2m28.54,1.14c30.06-1.35,57.79-2.18,88.2-2.95m-311.8-16,103.34,3.69"/><path class="cls-8" d="M79.72,290.28l90.23-1.6"/><path class="cls-9" d="M2,270.1l223-3m-67.65,4.51,223-3"/><path class="cls-8" d="M2,280.85l157.48-.91"/><path class="cls-10" d="M395,261.34,5,261c-2.21,0-4,1.43-4,3.2l393.9.33q0-1.59.06-3.2Z"/><path class="cls-11" d="M79.57,262.78c.92.23,2.07.49,3.47.78,32.26,6.84,38.31,3.71,76.23,4.71,30,.8,30.54-1.13,60.62-.93s-70.17.19-40.09.39,30.24-2.62,60.32-2.42c29,.19,29.29,2.77,55.32.46L286,262.89Z"/><path class="cls-12" d="M83.22,292.74l79.87-1.87"/><path class="cls-5" d="M139.43,284.39l168.43-3.2M139.4,290.83,363,282"/><path class="cls-5" d="M335.43,285.27c20.66.8,37.9.36,58.58.53M220.58,271.39c59.14.81,113.9,2.41,173.43,3.21"/><path class="cls-8" d="M218.09,290.28l90.23-1.6"/><path class="cls-13" d="M140.41,270l223-3"/><path class="cls-8" d="M140.37,280.73l157.48-.91"/><path class="cls-12" d="M221.59,292.74l79.87-1.87"/><path class="cls-14" d="M166.46,262l34.27,4.45c25.06,1.65,35.3.93,73.09,1.16"/><path class="cls-15" d="M395,286.28s-34.54-.56-52.92-.45c-84.78.51-78.47,1.14-165.32,1.38-84.9.23-7.54-.48-63.83,1.14-6,.17-64.13,3.85-64.13,3.85H395Z"/><path class="cls-16" d="M370,276.68c0-1.79-1.85-3.23-4.1-3.21-28.61.27-47.14.5-111.57.62-121.43.23-54.07-.49-134.58,1.16-8.6.18-92.84-14.37-91.71,3.93.41,6.65,156.64,3.48,338,.8,2.21,0,4-1.47,4-3.24Z"/><rect class="cls-17" x="1.01" y="261" width="394" height="32" rx="4" ry="4"/><rect class="cls-1" x="31" y="5" width="332" height="240" rx="6" ry="6"/><rect class="cls-18" x="31" y="5" width="332" height="240" rx="6" ry="6"/><g class="cls-19"><path class="cls-1" d="M31,11a6,6,0,0,1,5.91-6H357.09A6,6,0,0,1,363,11"/></g><rect class="cls-20" x="31" y="5" width="332" height="240" rx="6" ry="6"/><rect class="cls-1" x="31" y="5" width="332" height="240" rx="6" ry="6"/><path class="cls-21" d="M43,17H351V225H43Z"/><path class="cls-22" d="M76,41H320a6,6,0,0,1,6,6V65H70V47A6,6,0,0,1,76,41Z"/><g class="cls-23"><path class="cls-24" d="M70,47a5.94,5.94,0,0,1,5.88-6H320.14A5.94,5.94,0,0,1,326,47"/><path class="cls-25" d="M326,65H70"/></g><path class="cls-26" d="M76,41H320a6,6,0,0,1,6,6V65H70V47A6,6,0,0,1,76,41Z"/><path class="cls-27" d="M93,65H277V213H93Z"/><path class="cls-28" d="M70,65H94V213H76a6,6,0,0,1-6-6Zm208,0h48V207a6,6,0,0,1-6,6H278Z"/><path class="cls-29" d="M278,65h48v8H278Z"/><path class="cls-26" d="M283,69h16"/><path class="cls-29" d="M278,113h48v8H278Z"/><path class="cls-26" d="M283,117h16"/><path class="cls-29" d="M278,177h48v8H278Z"/><path class="cls-26" d="M283,181h16"/><path class="cls-30" d="M286,129h16v8H286Zm16,0h16v8H302Zm-16,16h16v8H286Zm16,0h16v8H302Zm-16,16h16v8H286Zm16,0h16v8H302Z"/><path class="cls-30" d="M286,81h32v8H286Zm24,0v8"/><path class="cls-31" d="M315.21,84.29l-1.39,1.41-1.39-1.41Z"/><path class="cls-30" d="M286,97h32v8H286Zm24,0v8"/><path class="cls-31" d="M315.21,100.29l-1.39,1.41-1.39-1.41Z"/><path class="cls-30" d="M286,193h32v8H286Zm24,0v8"/><path class="cls-31" d="M315.21,196.29l-1.39,1.41-1.39-1.41Z"/><circle class="cls-32" cx="95.01" cy="53" r="4"/><path class="cls-33" d="M95,58a5,5,0,1,1,5-5A5,5,0,0,1,95,58Zm0-8a3,3,0,1,0,3,3A3,3,0,0,0,95,50Z"/><circle class="cls-34" cx="108.01" cy="53" r="4"/><path class="cls-35" d="M108,58a5,5,0,1,1,5-5A5,5,0,0,1,108,58Zm0-8a3,3,0,1,0,3,3A3,3,0,0,0,108,50Z"/><path class="cls-3" d="M19.35,245H376.68a5.33,5.33,0,0,1,5.33,5.33h0A10.67,10.67,0,0,1,371.35,261H24.68A10.67,10.67,0,0,1,14,250.33h0A5.33,5.33,0,0,1,19.35,245Z"/><path class="cls-18" d="M19.35,245H376.68a5.33,5.33,0,0,1,5.33,5.33h0A10.67,10.67,0,0,1,371.35,261H24.68A10.67,10.67,0,0,1,14,250.33h0A5.33,5.33,0,0,1,19.35,245Z"/><g class="cls-36"><path class="cls-3" d="M380.29,259.37A40.31,40.31,0,0,1,370.16,261H25.87a90.59,90.59,0,0,1-10.16-.91"/><path class="cls-3" d="M14,249c0-2.21,2.67-4,6-4H376.06c3.29,0,6,1.79,6,4"/><path class="cls-3" d="M168,245h64"/><path class="cls-3" d="M168,245h64"/><path class="cls-3" d="M168,245h64"/></g><path class="cls-37" d="M19.35,245H376.68a5.33,5.33,0,0,1,5.33,5.33h0A10.67,10.67,0,0,1,371.35,261H24.68A10.67,10.67,0,0,1,14,250.33h0A5.33,5.33,0,0,1,19.35,245Z"/><path class="cls-3" d="M19.35,245H376.68a5.33,5.33,0,0,1,5.33,5.33h0A10.67,10.67,0,0,1,371.35,261H24.68A10.67,10.67,0,0,1,14,250.33h0A5.33,5.33,0,0,1,19.35,245Z"/><ellipse class="cls-38" cx="171.74" cy="174.19" rx="69.08" ry="4.42"/><path class="cls-39" d="M167.8,150.63c-4.38-2.61-6.58-2.91-11.76-1.72a16.56,16.56,0,0,1-3.52.49,11.5,11.5,0,0,1-6.36-1.48l3.64-3.19-.35-.39c-.15.14-.32.27-.46.42a5.36,5.36,0,0,1-8.67-.68,2.94,2.94,0,0,1-.24-2.25,13.69,13.69,0,0,0,.59-7.5c-.61,2.06-.86,4.23-1.66,6.18a44.33,44.33,0,0,1-3.28,5.65l3-2a6.88,6.88,0,0,0,5.8,3.46,2.1,2.1,0,0,1,1.05.48,11.19,11.19,0,0,0,8.92,2.17,35,35,0,0,1,8.74-.18c3.19.37,4.93,2.87,4.57,6.06a17.92,17.92,0,0,1-1.39,4.83,17.39,17.39,0,0,1-1.87,2.93c2.77-1.94,4.22-5,4.51-8.75.19-2.46.6-4.9.94-7.35a15.67,15.67,0,0,1,.43-1.7L170,146Z"/><path class="cls-39" d="M172.13,136.14c-.27-2-.24-4-.33-6-1.36,2.17-1.3,4.56-.7,7.16L167,134.88l-.32.4c3.17,2.83,6.54,5.51,7,10.21l.62-.23c-.33-1.58-.62-3.18-1-4.75A43.7,43.7,0,0,1,172.13,136.14Z"/><path class="cls-39" d="M177.33,120.71c-1.91,4-5.09,4.53-8.61,3.92-3.74-.65-5.53-3.07-5.75-6.81l-.55,2.13c-2.13-1.3-2-3.37-2.34-5.49a5.64,5.64,0,0,0,1.62,6.89,9,9,0,0,1,1.63,1.46c2.36,3.45,5.69,4,9.44,3.22A5.54,5.54,0,0,0,177.33,120.71Z"/><path class="cls-39" d="M189.66,137c-2-2-2.51-4.65-2.87-7.36l-.6,2.61c-1.32-1.8-3-1.87-4.71-2.13a3.56,3.56,0,0,1-2.8-2.88,3.3,3.3,0,0,1,1.19-3.79c1.08-.8,2.34-1.38,3.41-2.2a14.44,14.44,0,0,0,1.85-2.07c-1.15.54-2,1.31-3.05,1.69-2.56.95-4.72,2.2-5.11,5.2l-1.46-.31c3.92,5.17,4.79,4.93,5.87,11.82l.1-6.13a8.38,8.38,0,0,1,2.7.59c3.55,2.25,2.79,6,2.9,9.43h.47l.76-4c2.11,2.32,4.35,4.13,7.05,4.39C193.59,140.4,191.49,138.83,189.66,137Z"/><path class="cls-39" d="M197.83,131.5l1.92,4c-2.08.47-3.69-.31-4.3-2.26-.42-1.34-.5-2.78-.87-4.14a11.4,11.4,0,0,0-1.06-2.1c0,1.16.24,2.12.34,3.09s0,1.93.14,2.87a4.66,4.66,0,0,0,5.62,4.06,2.83,2.83,0,0,1,2.58.72c2.17,1.74,4.56,3,7.49,2.41,2.07-.42,4-.49,5.53,1.5l.28-.47-2.55-2.44.79-1.35c-3.74,3-7.25,1.78-10.47-.64A58.16,58.16,0,0,1,197.83,131.5Z"/><path class="cls-39" d="M152.68,117a4.15,4.15,0,0,1,2.47,5.67,5.44,5.44,0,0,1-4.36,3.36c-.49.11-1,.17-1.94.33,2.73.81,3.78.46,7.49-2.19,2.35,2.56,1.31,5.6,1.15,8.82,2.28-3.69,2.14-6.59-.19-9.67a2.36,2.36,0,0,1-.34-1.22,25.7,25.7,0,0,0-.16-3.52A6.58,6.58,0,0,1,159,112c1.32-1.21,2.76-2.3,4.15-3.44-3.68,1.51-7,3.44-8,7.67l-8.62-2.32a14.08,14.08,0,0,0,2.28,1.72C150.08,116.18,151.42,116.48,152.68,117Z"/><path class="cls-39" d="M202.71,158.79a3.08,3.08,0,0,1-1.4-2.49c-.33-2.84-1.22-5.46-3.79-7.07-1.75-1.1-2.87-2.48-2.73-4.69l-.42.06c0,1.17,0,2.34,0,3.56l-1.79.4a7,7,0,0,1,6.64,5.18,19.68,19.68,0,0,1,.91,4.64,43.68,43.68,0,0,1-.18,5,5.13,5.13,0,0,0,.93-1.75c.21-.62.37-1.25.56-1.93,1.94,1.39,2.45,2.94,1.49,4.76-.63,1.19-1.56,2.22-2.24,3.39a13.09,13.09,0,0,0-.8,2.25c1.29-1.45,2.39-2.64,3.44-3.87C205.48,163.67,205.27,160.55,202.71,158.79Z"/><path class="cls-39" d="M190.07,123.86l-4.42,2.59.06.22,2.94-.73.46,4.18.34,0a24.16,24.16,0,0,1,0-2.94A32,32,0,0,1,190.07,123.86Z"/><path class="cls-39" d="M170.05,104.85c1.28-.22,2.58-.3,3.87-.44l.21-.18a20.93,20.93,0,0,0-3.5-.48c-1.8,0-3.6.49-5.39.49s-4,.22-5.27-2l-.3.32,1.68,2.38c-2.63.72-5.44,1.26-7.29,3.69,2.6-1.9,5.66-2.05,8.68-2.46C165.19,105.86,167.61,105.26,170.05,104.85Z"/><path class="cls-39" d="M164.89,131.64c1.08-.13,2.18-.08,3.37-.12-2.11-1.49-5.47-1.34-6.74.21-1.13,1.38-.76,3.67.93,5.35-.13-.59-.24-1.07-.33-1.55C161.6,132.9,162.25,132,164.89,131.64Z"/><path class="cls-39" d="M182,95.8l.53,2.86.17,0v0l-.52-2.84Z"/><path class="cls-39" d="M204,102c-2.66.05-5.32.28-8,.16-.85-.1-1.65-1-2.37-1.4l-.11,0-.08-.05a9.17,9.17,0,0,1-2.29.47,4.33,4.33,0,0,1-4.33-3.68c0,.21,0,.39,0,.58a5.4,5.4,0,0,1-.23-.61,4.33,4.33,0,0,0,4.4,4.8,6.56,6.56,0,0,0,1.38,0,5.32,5.32,0,0,1,.91-.05,2.06,2.06,0,0,1,.79.19,11.7,11.7,0,0,0,4.3,1.4,10,10,0,0,0,4.52-.46,39.34,39.34,0,0,1,4-.92,6.32,6.32,0,0,0-1.48-.34A9.09,9.09,0,0,0,204,102Z"/><path class="cls-39" d="M231.25,121.93,226.38,125l.35-.08-.16.1,2.89-.64.67,4.28.09-.57.09.59,1.12-6.74-.21.14Z"/><path class="cls-39" d="M219.43,112.75c-1.37,1-2.93,2.69-4.92,2.63a3.6,3.6,0,0,1-.74-.13c-2.05-.61-3.83-2.15-5.4-3.08l.08.15-.27-.18a5.67,5.67,0,0,0,4.81,3.73,11.92,11.92,0,0,0,4.74-.55l.68,4.36.09-.61.1.63,1-6.94-.22.17Z"/><path class="cls-39" d="M215.41,164.77c-2.81-1.53-5.31-1.09-6.91,1.2s-1.18,5.14,1.47,7.42c-.48-1.08-.87-1.77-1.11-2.52a4.37,4.37,0,0,1,1.13-4.54,3.46,3.46,0,0,1,4.06-.8c1.06.4,2.07.94,3.15,1.26a14.65,14.65,0,0,0,2.5.31,9.46,9.46,0,0,0-2.1-1C216.83,165.71,216.15,165.18,215.41,164.77Z"/><path class="cls-39" d="M183.33,94l0-.14L179.77,96l.07.17.16,0,0-.11Z"/><path class="cls-40" d="M227.63,152.37l-.43-.06a12,12,0,0,1-6.61,5.92L223,162.5l-.49.33c-1.24-2.68-3.53-4-6.08-5.15a16.38,16.38,0,0,1-4.35-3.15,14.38,14.38,0,0,1-2-3,80.15,80.15,0,0,0,6.88,4.78c3.28,1.84,9.43-1.22,9-6.35s-3.13-8.85-6.79-12.1a12.41,12.41,0,0,0-1.28-.87l-.31,1.43c-2.67-5.64-4.54-7.28-10-7.74-2.84-.24-3.83-2-4.5-4.12a38.11,38.11,0,0,1-.89-5.1l.29-.13a10.16,10.16,0,0,1,.81,1.53c.34,1,.56,2.07.87,3.1a3.72,3.72,0,0,0,3.1,3,4.42,4.42,0,0,0,4.44-1.9c.37-.52.67-1.09,1-1.63l.48.26L211,130l2.79.08c.43,1.73,6.44,7.62,10.72,10.13a23.71,23.71,0,0,0-7.18-14.9l-.87,3.43c-.42-1.94-.41-3.8-.67-5.62a4.87,4.87,0,0,0-3.4-4.28c-1.63-.51-2.1.06-1.91,1.71a44.42,44.42,0,0,1,.07,4.71l-.53,0c.19-5.88-2.87-9.84-7.53-12.88l1.82.44.2-.59-6.34-2.62.84,4.07-.43.16c-1-3-2.4-5.79-5.1-7.58a12.92,12.92,0,0,0-9-1.79l.51,3.26-.36.25c-2.39-8.19-8.24-10.39-15.93-9.58l2.47-1c-2.75-1.18-5.31-2-7.81-1.18-3.38,1.08-6.6,2.65-10.08,3.54A10,10,0,0,0,150,102a15.87,15.87,0,0,0-1.8,2l.3.35,4.75-1.87a5.63,5.63,0,0,1-2.2,1.85c-2.09,1-4.21,1.93-6.32,2.91a10.51,10.51,0,0,0-5.24,5.23l2.5-.15c-6.8,2.35-10.08,7.19-10,14.48l-.41-.25-.46-2.1c-2.71,2.13-4,9.74-2.64,12.29l4.53-3,.27.32c-.88.84-1.83,1.63-2.63,2.54a8.62,8.62,0,0,0-2,2.83v0c-8,.16-14-4.57-14.94-12.39a22.48,22.48,0,0,1,2.7-14.47,14,14,0,0,0,1.44-3.38,15.68,15.68,0,0,0,.13-7.26c-.27-1.76-.62-2.64-1.29-2.88,0,0-.59-.21-.85.05-.6.59,1,2.84.75,4.5a4.78,4.78,0,0,0-.08.75,5.19,5.19,0,0,0,.17,1.42,6.44,6.44,0,0,1,.07,2.21c-.25-.08-.36-.08-.38-.12a13.24,13.24,0,0,1-1.28-3.35c-.54-2.4-2.14-4.48-2.75-4.32-.32.08-.45.83-.41,1.34.09,1.2,1.16,1.61,1.49,3.27.06.28,0,.25.09.55a12.81,12.81,0,0,1,.62,2.27c0,.11,0,.2,0,.25l-1.88,1.69a10.5,10.5,0,0,0-.8-4.36c-.37-.87-1.23-2.91-2.35-2.85-.55,0-1,.56-1.25,1a5.87,5.87,0,0,1,2.53,2.86,7.14,7.14,0,0,1,.22,3.23c0,.2,0,.41,0,.62a18.53,18.53,0,0,1-2.23-2,2.85,2.85,0,0,0-1.64-1c-.84-.13-1.8.26-1.83.67s.51.51,1.67,1.17c1.92,1.1,1.87,1.41,3.25,2.08l.64.29c-.15,1-.41,2.21-.86,4-.49,2-.91,3.37-.91,3.38-2.16,12.18,2.43,24.81,18.41,26.16l1.08.08a11.3,11.3,0,0,0,2,5.28,6,6,0,0,0,6.82,2.52,4.39,4.39,0,0,1,.85,0l.09.45L134,154.21c1.09,3.17,5,5.49,9.1,5.54,4.36.06,8.16-1.55,11.83-3.65l1.17-.67.31.44A18.17,18.17,0,0,1,154,158a2,2,0,0,0-1.09,2.36,9.85,9.85,0,0,0,5.39,7.58,19.54,19.54,0,0,0,12.23,1.76,57.21,57.21,0,0,0,6-1.6c-2.59-4.68-2.57-5.21.11-8.84-3.58-2.46-4.35-3.77-3.53-6,.76,3.13,2.6,4.69,5.75,4.9,2.07.14,3.16-.69,4.12-3.18a3.39,3.39,0,0,1-2.22,3.95,19.85,19.85,0,0,0-3.15,1.65c-1.51,1-1.87,2.64-1.24,4.55a3.68,3.68,0,0,0,3.76,2.83c2.39-.33,4.73-1,7.09-1.53.94-.22,1-.81.89-1.8-.2-1.63-.47-3.54.17-4.92.92-2,2-3.78,1.8-6.06,0,0,.14-.11.25-.18.44,1-.31,3,2.4,2.34-3,2.3-4.74,4.76-3.67,8.29,1,3.32,3.44,5.09,6.71,5.9l-2.26.25c3.32,6.28,16.65,6.91,22.67,2.76l-2.64-.83c5.31.26,8.53-2.65,10.7-6.86a46.08,46.08,0,0,0,3.07-8.22A21.59,21.59,0,0,0,227.63,152.37Zm-24.36-15.6c3.22,2.42,6.72,3.63,10.47.64l-.79,1.35,2.55,2.44-.28.47c-1.51-2-3.46-1.92-5.53-1.5-2.92.6-5.32-.67-7.49-2.41a2.83,2.83,0,0,0-2.58-.72A4.66,4.66,0,0,1,194,133c-.14-.94,0-1.92-.14-2.87s-.31-1.93-.34-3.09a11.4,11.4,0,0,1,1.06,2.1c.37,1.36.45,2.8.87,4.14.61,2,2.22,2.73,4.3,2.26l-1.92-4A58.16,58.16,0,0,0,203.27,136.76Zm-10.78-24.37a31.61,31.61,0,0,0,1.63,2.81,30.57,30.57,0,0,0,2.1,2.39,8.92,8.92,0,0,1,3.26-1.36,3.48,3.48,0,0,1,1.39.21c-1.1.62-2.7,1.1-3.63,2.16s-1,2.63-1.56,4.15a7.14,7.14,0,0,1-.36-2.58,3,3,0,0,0-1.28-3.36C192.72,115.67,191.7,114.36,192.48,112.39Zm-3,17.68-.34,0-.46-4.18-2.94.73-.06-.22,4.42-2.59a32,32,0,0,0-.67,3.27A24.16,24.16,0,0,0,189.45,130.07Zm-9.92-21.85c.2,2.32,1,3.87,2.81,4.74s3.47.48,5.15-1.09c-1.26,2.5-4,3.38-5.95,1.86-2.09-1.66-4.29-1.53-6.57-1-1.63.38-3.19,1-4.79,1.56l-.26-.38,7.16-3.09-4.43-.67,0-.35,6.27.34ZM161.35,105l-1.68-2.38.3-.32c1.22,2.19,3.35,2,5.27,2s3.59-.44,5.39-.49a20.93,20.93,0,0,1,3.5.48l-.21.18c-1.29.14-2.59.22-3.87.44-2.44.42-4.86,1-7.31,1.35-3,.41-6.07.57-8.68,2.46C155.91,106.23,158.72,105.7,161.35,105Zm-6.16,11.24c1-4.23,4.29-6.15,8-7.67-1.39,1.14-2.83,2.23-4.15,3.44a6.58,6.58,0,0,0-2.2,6.58,25.7,25.7,0,0,1,.16,3.52,2.36,2.36,0,0,0,.34,1.22c2.32,3.08,2.46,6,.19,9.67.16-3.22,1.2-6.25-1.15-8.82-3.72,2.65-4.76,3-7.49,2.19,1-.16,1.45-.22,1.94-.33a5.44,5.44,0,0,0,4.36-3.36,4.15,4.15,0,0,0-2.47-5.67c-1.26-.51-2.6-.81-3.83-1.37a14.08,14.08,0,0,1-2.28-1.72Zm-14.74,6.26a14,14,0,0,1-.11-4.3c0,2.93,1.27,5.35,3.1,8.15,1.24-4.51,6.07-3.77,8.68-6.35a13.24,13.24,0,0,1-1.8,2.06c-1.16.89-2.53,1.51-3.69,2.39a4.07,4.07,0,0,0,2.49,7.31,5.36,5.36,0,0,1,4.72,2.84c2.45,4.31,5.43,8,10.62,10-3.29-.11-5-1.05-8.88-4.73l-.82,4.53-.51,0c0-.61,0-1.23,0-1.84a11.17,11.17,0,0,0-1.33-7.2c-1.28-2-2.84-2.65-4.88-2,0,2.33,0,4.63,0,6.93l-.63.07c.33-6.27-2.66-10.63-7.74-14l2.18.31A34.07,34.07,0,0,1,140.45,122.47ZM170,147.87c-.34,2.45-.76,4.89-.94,7.35-.29,3.77-1.74,6.82-4.51,8.75a17.39,17.39,0,0,0,1.87-2.93,17.92,17.92,0,0,0,1.39-4.83c.36-3.19-1.38-5.69-4.57-6.06a35,35,0,0,0-8.74.18,11.19,11.19,0,0,1-8.92-2.17,2.1,2.1,0,0,0-1.05-.48,6.88,6.88,0,0,1-5.8-3.46l-3,2a44.33,44.33,0,0,0,3.28-5.65c.79-2,1-4.12,1.66-6.18a13.69,13.69,0,0,1-.59,7.5,2.94,2.94,0,0,0,.24,2.25,5.36,5.36,0,0,0,8.67.68c.14-.15.31-.28.46-.42l.35.39-3.64,3.19a11.5,11.5,0,0,0,6.36,1.48,16.56,16.56,0,0,0,3.52-.49c5.19-1.19,7.38-.9,11.76,1.72L170,146l.47.18A15.67,15.67,0,0,0,170,147.87Zm3.65-2.39c-.47-4.7-3.85-7.39-7-10.21l.32-.4,4.11,2.39c-.61-2.6-.66-5,.7-7.16.1,2,.07,4,.33,6a43.7,43.7,0,0,0,1.17,4.36c.38,1.57.67,3.17,1,4.75ZM172.77,126c-3.75.78-7.08.23-9.44-3.22a9,9,0,0,0-1.63-1.46,5.64,5.64,0,0,1-1.62-6.89c.29,2.12.21,4.19,2.34,5.49l.55-2.13c.22,3.74,2,6.17,5.75,6.81,3.52.61,6.7.12,8.61-3.92A5.54,5.54,0,0,1,172.77,126Zm6.72,17A15.83,15.83,0,0,0,176.9,140c1.61.24,1.75.38,5.61,6l2.17-2.32.52.4c-1.83.73-1.68,2.22-1.34,3.54.58,2.23,1.49,4.37,2.14,6.58a15.07,15.07,0,0,1,.56,4C184.22,153.07,181.94,148,179.49,143Zm8.81-5.53-.76,4h-.47c-.11-3.43.65-7.18-2.9-9.43a8.38,8.38,0,0,0-2.7-.59l-.1,6.13c-1.08-6.89-1.95-6.65-5.87-11.82l1.46.31c.39-3,2.55-4.25,5.11-5.2,1-.38,1.9-1.15,3.05-1.69a14.44,14.44,0,0,1-1.85,2.07c-1.07.82-2.32,1.4-3.41,2.2a3.3,3.3,0,0,0-1.19,3.79,3.56,3.56,0,0,0,2.8,2.88c1.69.27,3.39.33,4.71,2.13l.6-2.61c.36,2.71.9,5.38,2.87,7.36s3.92,3.4,5.69,4.91C192.65,141.65,190.41,139.84,188.3,137.52Zm15,28.66c-1,1.23-2.15,2.42-3.44,3.87a13.09,13.09,0,0,1,.8-2.25c.69-1.17,1.61-2.2,2.24-3.39,1-1.81.46-3.37-1.49-4.76-.2.68-.35,1.32-.56,1.93a5.13,5.13,0,0,1-.93,1.75,43.68,43.68,0,0,0,.18-5,19.68,19.68,0,0,0-.91-4.64,7,7,0,0,0-6.64-5.18l1.79-.4c0-1.22,0-2.39,0-3.56l.42-.06c-.14,2.21,1,3.59,2.73,4.69,2.57,1.61,3.46,4.23,3.79,7.07a3.08,3.08,0,0,0,1.4,2.49C205.27,160.55,205.48,163.67,203.33,166.19Zm1-18.86a7.63,7.63,0,0,1,.18,1.86c-1.21-2.58-2.42-5.11-5.47-6l.32-.46,3.74,1.75c2.43-2.25,5.05-2.57,7.37-.83-1.2.05-2.37,0-3.51.17C204.62,144.08,204,145,204.37,147.32Zm12.82,19.47c-1.08-.32-2.09-.86-3.15-1.26a3.46,3.46,0,0,0-4.06.8,4.37,4.37,0,0,0-1.13,4.54c.24.75.63,1.45,1.11,2.52-2.65-2.28-3.13-5.05-1.47-7.42s4.1-2.74,6.91-1.2c.74.41,1.42.94,2.18,1.3a9.46,9.46,0,0,1,2.1,1A14.65,14.65,0,0,1,217.19,166.79Z"/><path class="cls-41" d="M180,96l0,.11,0,.05,2-.36.18,0,.52,2.84v.08l.17,0,.61-4.77-.21.12Z"/><path class="cls-40" d="M252.28,125a27.62,27.62,0,0,0-13.63.93,28.7,28.7,0,0,0-1.22-3.46c-1.17-3-3.11-5.54-6.35-6.67a13.75,13.75,0,0,0-2.25-.57,18.93,18.93,0,0,0-6.71.22l-.31,0,2.06-1.17c-1.49-3.47-4.56-6-4.46-10.4.08.27.16.5.23.75,1,3.26,1.92,4.61,3.07,4.57a1.79,1.79,0,0,0,.52-.1s0,0,0,.06c-.55,2.22.82,4.78,2.79,4.71h0a17.4,17.4,0,0,1,2.46.09,12.71,12.71,0,0,1,6.29,2.39l-.09-.14c-1.75-2.89-3.47-5.8-6.93-6.49a8.39,8.39,0,0,0-1.46-.14l-.2,0,2.55-.7c-1.22-4.16-6.75-7.76-10.71-8.41a4.37,4.37,0,0,0-3.25.45c2.7,2.77,4,6,3.09,9.76-.05.21-.08.42-.15.64,0-5.79-3-9.77-7.67-12.77l.24.06a11.29,11.29,0,0,1,1.77.54l1.82.69v0l.17-.77a19.94,19.94,0,0,0-10.5-4.41,23.5,23.5,0,0,0-11.5,2l-.16.06-.12-.42,2.47-1.84c-2.09-1.66-4.26-3.14-6.74-3.37a7.14,7.14,0,0,0-1.28,0,57.07,57.07,0,0,0-8.25,1.82l-.2.05a.61.61,0,0,0,0-.07,1.76,1.76,0,0,0-.07-.45v0a19.94,19.94,0,0,0-9.73,2.7c2.83.81,4.74,2.53,7.47,2.63a9.32,9.32,0,0,1,7.56,4.58,2.14,2.14,0,0,0,1.68,1.16,3.17,3.17,0,0,0,.66,0,16.43,16.43,0,0,1,3.48,0,11,11,0,0,1,8.06,4.61,2.78,2.78,0,0,0,1.84.85,8.59,8.59,0,0,1,6.22,3.38c1.38,1.71,2.79,3.39,4.24,5a1.7,1.7,0,0,0,1.18.39h0a10.52,10.52,0,0,1,1.38.07c2.76.32,4.24,1.86,5,5a10.86,10.86,0,0,0,1,2l.07-.18c1.42-3.68,1.88-4.07,5.44-5.53a21.37,21.37,0,0,0,2.66-1.56l.15,0,.07,0a12.18,12.18,0,0,1-1.58,1.77c-.85.65-1.84,1.1-2.74,1.69-1.86,1.22-2.5,2.53-2.13,4.22a4.11,4.11,0,0,0,3.84,3.28c.39.05.78.15,1.16.23l0,.26-2.27.44a14.61,14.61,0,0,1,.69,1.63c.7,2.49,1.82,5,1.92,7.5.11,2.89,1.08,5.32,2.42,8.21l.08-.22,2.63-7.43,0,.42.32,2.9.18-.09,4.4-2.18c-6.56-4.65-8.66-8.44-6.94-12.34,0,.16,0,.3,0,.46.36,5.69,3.71,9.13,8.61,11.61-.67.12-1.18.07-1.49.29-1.48,1.08-2.89,2.25-4.36,3.35s-2.36,2.14-2,4a4.38,4.38,0,0,0,3.33,3.68c.66.19,1.34.34,2,.5-1.6-.19-2.16.84-2.69,2l-.19.4c.37-2.69-2.22-3-3.28-4.78a2.93,2.93,0,0,1-.26-.5l1.21,7.71.17-.09a4.93,4.93,0,0,1,3.09-.78,4.09,4.09,0,0,1,2.44,1.58l.1.1a6.89,6.89,0,0,0-2.55-.8,3.48,3.48,0,0,0-3.51,1.94A55.82,55.82,0,0,0,226,165l.38.35.09-.07,5.55-4,.08-.59-1.32-.27c4.11-.34,7.15-2.52,6.94-5.17h0l-1.57-.11h-.21c1-.46,1.7-.74,2.35-1.07a4.34,4.34,0,0,0,2.46-4.76,2.87,2.87,0,0,0-2.34-2.67,3.84,3.84,0,0,0-1.5,0,6.74,6.74,0,0,1-2.17.2,3.1,3.1,0,0,1-1.74-.77c.34,0,.61-.08.89-.1,3.77-.26,5.93-2.07,6.64-5.78a12,12,0,0,0-1.07-8.32c1.75-.51,3.47-1.13,5.25-1.5,9-1.88,16.57,3.81,17,12.85.32,6.94-2.69,12.78-7.36,17.57-.7.72-3.28,1.57-6.13.93a8.29,8.29,0,0,1-3-1.35,3.38,3.38,0,0,0,.42,1.33c.45.79,1,1,1.94,1.68,1.12.83,1.92,1.41,2.2,2.34a4.78,4.78,0,0,1-.45,3c-.38,1-.81,2-1.16,3a4.86,4.86,0,0,0-.34,1.09,3.72,3.72,0,0,0,.31,2l.55.13a15.11,15.11,0,0,1,3-6.86l-1.31,7.19a1.39,1.39,0,0,0,1-.08c.73-.41.66-1.57.92-3a12.11,12.11,0,0,1,1-3.11l.53.16c-1,2-1.87,4,.13,6-.71-3.58,1.34-6,3.14-8.57,1.31-1.86,2.59-3.74,3.88-5.61,3.15-4.6,5.55-9.52,6.2-15.13C268.38,135.55,262.24,126.92,252.28,125ZM182.93,98.66l-.17,0v0l-.17,0L182,95.8l-2,.36,0-.05-.16,0-.07-.17,3.58-2.11,0,.14.21-.12ZM203,103.33a10,10,0,0,1-4.52.46,11.7,11.7,0,0,1-4.3-1.4,2.06,2.06,0,0,0-.79-.19,5.32,5.32,0,0,0-.91.05,6.56,6.56,0,0,1-1.38,0,4.33,4.33,0,0,1-4.4-4.8,5.4,5.4,0,0,0,.23.61c0-.19,0-.38,0-.58a4.33,4.33,0,0,0,4.33,3.68,9.17,9.17,0,0,0,2.29-.47l.08.05.11,0c.72.44,1.52,1.3,2.37,1.4,2.65.12,5.31-.11,8-.16a9.09,9.09,0,0,1,1.48.09,6.32,6.32,0,0,1,1.48.34A39.34,39.34,0,0,0,203,103.33Zm15.61,16.39-.1-.63-.09.61-.68-4.36a11.92,11.92,0,0,1-4.74.55,5.67,5.67,0,0,1-4.81-3.73l.27.18-.08-.15c1.56.93,3.34,2.47,5.4,3.08a3.6,3.6,0,0,0,.74.13c2,.06,3.55-1.59,4.92-2.63l0,.19.22-.17Zm11.71,9-.09-.59-.09.57-.67-4.28-2.89.64.16-.1-.35.08,4.87-3.08,0,.16.21-.14Z"/><circle class="cls-42" cx="242.25" cy="116" r="0.92"/><path class="cls-43" d="M240.54,87.3a14.57,14.57,0,0,1,1.22-1.15,2.38,2.38,0,0,1,2.72-.29,2.67,2.67,0,0,1,1.26,2.66,7,7,0,0,1-3,4.73c-2.54,2-1.85,2-4.12-.15a7.64,7.64,0,0,1-2.78-4.52,3.81,3.81,0,0,1,.47-2.24,2,2,0,0,1,3.19-.26C239.91,86.44,240.2,86.87,240.54,87.3Z"/><circle class="cls-44" cx="82.73" cy="53" r="3.13"/><path class="cls-44" d="M82.73,58a5,5,0,1,1,5-5A5,5,0,0,1,82.73,58Zm0-8a3,3,0,1,0,3,3A3,3,0,0,0,82.73,50Z"/><circle class="cls-45" cx="82.73" cy="53" r="3.13"/></svg>